<svg width="324" height="93" viewBox="0 0 324 93" fill="none" xmlns="http://www.w3.org/2000/svg">
<path d="M75.768 6.52C76.1947 8.48266 76.2373 10.488 75.896 12.536C75.64 14.4987 75.256 16.2907 74.744 17.912C73.72 21.24 72.5253 24.952 71.16 29.048C69.7947 33.144 68.4293 37.24 67.064 41.336C65.6987 45.432 64.376 49.3147 63.096 52.984C61.816 56.568 60.7493 59.5547 59.896 61.944C59.0427 64.1627 58.1467 66.68 57.208 69.496C56.2693 72.312 55.1173 75.0853 53.752 77.816C52.472 80.4613 50.936 82.8933 49.144 85.112C47.4373 87.3307 45.3467 88.952 42.872 89.976C40.3973 91 38.136 91.256 36.088 90.744C34.04 90.1467 32.2053 89.1227 30.584 87.672C28.9627 86.136 27.4693 84.2587 26.104 82.04C24.824 79.736 23.672 77.3893 22.648 75C21.624 72.6107 20.6853 70.3067 19.832 68.088C18.9787 65.784 18.2107 63.8213 17.528 62.2C14.8827 56.3973 12.4933 50.2533 10.36 43.768C8.22667 37.2827 6.05067 31.096 3.832 25.208C3.23467 23.5013 2.552 21.4533 1.784 19.064C1.016 16.5893 0.504 14.1573 0.248 11.768C0.0773335 9.29333 0.376 7.07467 1.144 5.112C1.912 3.064 3.53333 1.65599 6.008 0.887993C6.52 0.717328 7.032 0.58933 7.544 0.503998C8.14133 0.333328 8.696 0.205327 9.208 0.119995C9.80533 0.119995 10.36 0.162661 10.872 0.247993C11.384 0.333331 11.9387 0.546664 12.536 0.887993C12.9627 1.05866 13.3893 1.272 13.816 1.52799C14.2427 1.69866 14.6267 1.95466 14.968 2.296C15.3093 2.72266 15.608 3.14933 15.864 3.576C16.2053 4.00266 16.5467 4.42933 16.888 4.856C17.144 5.45333 17.3573 6.008 17.528 6.52C17.784 6.94666 17.9973 7.37333 18.168 7.8C18.3387 8.39733 18.552 8.952 18.808 9.464C19.064 9.89066 19.2773 10.3173 19.448 10.744L20.216 12.92L38.648 65.528L56.824 13.048L57.72 10.872C57.8907 10.4453 58.0613 10.0187 58.232 9.592C58.4027 9.08 58.5733 8.52533 58.744 7.92799C58.9147 7.50133 59.0853 7.07466 59.256 6.64799C59.512 6.136 59.8107 5.624 60.152 5.112C60.408 4.68533 60.664 4.25866 60.92 3.83199C61.2613 3.31999 61.6027 2.85066 61.944 2.424C62.2 2.08266 62.4987 1.78399 62.84 1.52799C63.2667 1.272 63.6507 1.05866 63.992 0.887993C64.6747 0.546664 65.272 0.333331 65.784 0.247993C66.3813 0.162661 66.8933 0.119995 67.32 0.119995C67.832 0.205327 68.344 0.333328 68.856 0.503998C69.4533 0.58933 70.008 0.717328 70.52 0.887993C72.1413 1.31466 73.336 2.03999 74.104 3.064C74.9573 4.088 75.512 5.24 75.768 6.52ZM122.408 73.464C123.432 73.208 124.456 73.0373 125.48 72.952C126.589 72.8667 127.571 72.9947 128.424 73.336C129.363 73.6773 130.131 74.2747 130.728 75.128C131.325 75.896 131.624 77.0053 131.624 78.456C131.624 79.48 131.368 80.4613 130.856 81.4C130.344 82.3387 129.704 83.192 128.936 83.96C128.168 84.728 127.315 85.4107 126.376 86.008C125.437 86.52 124.541 86.9467 123.688 87.288C121.213 88.3973 118.355 89.2507 115.112 89.848C111.955 90.4453 108.669 90.6587 105.256 90.488C100.648 90.3173 96.2107 89.4213 91.944 87.8C87.7627 86.0933 84.4773 83.32 82.088 79.48C79.8693 75.7253 78.5467 71.544 78.12 66.936C77.6933 62.328 77.9067 57.976 78.76 53.88C79.6987 48.9307 81.2773 44.92 83.496 41.848C85.8 38.6907 88.5307 36.1733 91.688 34.296C95.528 32.0773 99.8373 30.9253 104.616 30.84C109.395 30.7547 113.96 31.6933 118.312 33.656C121.213 34.936 123.816 36.6853 126.12 38.904C128.424 41.0373 130.173 43.64 131.368 46.712C131.709 47.48 131.965 48.4187 132.136 49.528C132.392 50.6373 132.563 51.832 132.648 53.112C132.733 54.3067 132.733 55.5013 132.648 56.696C132.563 57.8907 132.349 58.9573 132.008 59.896C131.496 61.432 130.856 62.6267 130.088 63.48C129.32 64.3333 128.339 64.9733 127.144 65.4C125.949 65.8267 124.499 66.1253 122.792 66.296C121.171 66.3813 119.208 66.4667 116.904 66.552C114.856 66.6373 112.936 66.68 111.144 66.68C109.352 66.68 107.517 66.68 105.64 66.68C103.763 66.5947 101.8 66.552 99.752 66.552C97.7893 66.4667 95.5707 66.3813 93.096 66.296C92.84 68.0027 93.0533 69.496 93.736 70.776C94.504 71.9707 95.528 72.9947 96.808 73.848C98.088 74.616 99.5387 75.2133 101.16 75.64C102.781 76.0667 104.36 76.3227 105.896 76.408C108.797 76.5787 111.571 76.3653 114.216 75.768C116.861 75.0853 119.592 74.3173 122.408 73.464ZM116.904 48.632C115.283 46.7547 113.576 45.3893 111.784 44.536C110.419 43.9387 108.968 43.6827 107.432 43.768C105.981 43.768 104.573 43.9813 103.208 44.408C100.733 45.0053 98.6427 46.2853 96.936 48.248C96.7653 48.4187 96.4667 48.8453 96.04 49.528C95.6133 50.1253 95.1867 50.7653 94.76 51.448C94.4187 52.1307 94.1627 52.7707 93.992 53.368C93.8213 53.9653 93.9067 54.264 94.248 54.264H119.336C119.251 53.0693 119.037 52.088 118.696 51.32C118.355 50.4667 117.757 49.5707 116.904 48.632ZM143.123 45.304C143.123 43.3413 143.08 41.2507 142.995 39.032C142.995 36.8133 143.379 34.808 144.147 33.016C144.83 31.3947 145.939 30.2427 147.475 29.56C149.096 28.792 150.675 28.6213 152.211 29.048C153.747 29.304 154.942 29.7733 155.795 30.456C156.648 31.1387 157.246 31.9493 157.587 32.888C158.014 33.7413 158.27 34.7653 158.355 35.96C158.44 37.0693 158.526 38.1787 158.611 39.288C159.464 37.752 160.531 36.5147 161.811 35.576C163.091 34.6373 164.414 33.8693 165.779 33.272C167.144 32.6747 168.424 32.248 169.619 31.992C170.899 31.736 171.88 31.608 172.563 31.608C175.806 31.608 179.006 32.3333 182.163 33.784C185.406 35.1493 188.094 37.112 190.227 39.672C191.422 41.208 192.318 42.8293 192.915 44.536C193.598 46.1573 194.067 47.864 194.323 49.656C194.664 51.448 194.878 53.2827 194.963 55.16C195.048 56.952 195.134 58.7867 195.219 60.664C195.646 66.1253 195.646 71.544 195.219 76.92C195.134 78.0293 195.091 79.3093 195.091 80.76C195.091 82.2107 194.963 83.6613 194.707 85.112C194.536 86.4773 194.152 87.7147 193.555 88.824C193.043 89.848 192.147 90.488 190.867 90.744C189.075 91.1707 187.582 91.256 186.387 91C185.278 90.8293 184.382 90.4453 183.699 89.848C183.016 89.2507 182.504 88.4827 182.163 87.544C181.822 86.6053 181.523 85.5387 181.267 84.344C181.096 83.4053 180.926 82.3387 180.755 81.144C180.67 79.864 180.584 78.584 180.499 77.304C180.499 76.024 180.456 74.7867 180.371 73.592C180.371 72.312 180.371 71.16 180.371 70.136C180.371 68.5147 180.328 66.7227 180.243 64.76C180.158 62.7973 180.158 60.9627 180.243 59.256C180.243 55.2453 179.176 52.216 177.043 50.168C174.995 48.0347 172.179 47.1387 168.595 47.48C165.864 47.8213 163.475 48.9307 161.427 50.808C159.379 52.6 158.398 54.9467 158.483 57.848C158.483 58.9573 158.483 59.9813 158.483 60.92C158.483 61.8587 158.44 62.7973 158.355 63.736C158.355 64.6747 158.355 65.6987 158.355 66.808C158.355 67.9173 158.355 69.1547 158.355 70.52C158.355 73.336 158.355 76.3227 158.355 79.48C158.355 82.552 157.971 85.0693 157.203 87.032C156.52 89.08 155.368 90.488 153.747 91.256C152.126 92.024 150.206 91.8107 147.987 90.616C147.048 90.104 146.28 89.4213 145.683 88.568C145.171 87.6293 144.744 86.648 144.403 85.624C144.147 84.6 143.976 83.576 143.891 82.552C143.806 81.4427 143.72 80.4187 143.635 79.48C143.379 76.664 143.208 74.0613 143.123 71.672C143.123 69.1973 143.123 66.552 143.123 63.736V45.304ZM258.478 60.536C258.307 63.352 258.137 66.2107 257.966 69.112C257.795 71.928 257.326 74.6587 256.558 77.304C255.875 79.9493 254.766 82.3387 253.23 84.472C251.779 86.6053 249.689 88.312 246.958 89.592C244.569 90.7867 242.009 91.5973 239.278 92.024C236.547 92.536 233.817 92.7493 231.086 92.664C228.355 92.5787 225.71 92.152 223.15 91.384C220.59 90.7013 218.286 89.72 216.238 88.44C214.19 87.16 212.526 85.496 211.246 83.448C209.966 81.4 208.942 79.1813 208.174 76.792C207.491 74.4027 207.022 71.928 206.766 69.368C206.51 66.808 206.339 64.4187 206.254 62.2C205.913 56.312 205.913 50.5093 206.254 44.792C206.254 43.6827 206.254 42.4453 206.254 41.08C206.254 39.6293 206.339 38.2213 206.51 36.856C206.766 35.4907 207.15 34.2533 207.662 33.144C208.174 31.9493 209.027 31.0533 210.222 30.456C212.782 29.0907 215.129 29.0053 217.262 30.2C219.481 31.3947 220.803 33.8693 221.23 37.624C221.486 39.5867 221.571 41.7627 221.486 44.152C221.486 46.5413 221.571 48.7173 221.742 50.68C221.827 53.5813 221.913 56.7387 221.998 60.152C222.083 63.48 222.553 66.4667 223.406 69.112C224.345 71.7573 225.838 73.7627 227.886 75.128C230.019 76.408 233.177 76.4507 237.358 75.256C239.321 74.6587 240.601 73.1653 241.198 70.776C241.881 68.3867 242.222 64.8453 242.222 60.152C242.222 58.104 242.179 55.8427 242.094 53.368C242.009 50.8933 241.966 48.4613 241.966 46.072C241.966 43.5973 242.009 41.336 242.094 39.288C242.265 37.1547 242.521 35.5333 242.862 34.424C243.289 32.888 244.185 31.736 245.55 30.968C246.915 30.2 248.366 29.816 249.902 29.816C251.438 29.7307 252.889 30.0293 254.254 30.712C255.619 31.3947 256.558 32.504 257.07 34.04C257.582 35.4053 257.923 37.1547 258.094 39.288C258.35 41.336 258.521 43.5973 258.606 46.072C258.691 48.4613 258.691 50.936 258.606 53.496C258.606 55.9707 258.563 58.3173 258.478 60.536ZM313.283 73.464C314.307 73.208 315.331 73.0373 316.355 72.952C317.464 72.8667 318.446 72.9947 319.299 73.336C320.238 73.6773 321.006 74.2747 321.603 75.128C322.2 75.896 322.499 77.0053 322.499 78.456C322.499 79.48 322.243 80.4613 321.731 81.4C321.219 82.3387 320.579 83.192 319.811 83.96C319.043 84.728 318.19 85.4107 317.251 86.008C316.312 86.52 315.416 86.9467 314.563 87.288C312.088 88.3973 309.23 89.2507 305.987 89.848C302.83 90.4453 299.544 90.6587 296.131 90.488C291.523 90.3173 287.086 89.4213 282.819 87.8C278.638 86.0933 275.352 83.32 272.963 79.48C270.744 75.7253 269.422 71.544 268.995 66.936C268.568 62.328 268.782 57.976 269.635 53.88C270.574 48.9307 272.152 44.92 274.371 41.848C276.675 38.6907 279.406 36.1733 282.563 34.296C286.403 32.0773 290.712 30.9253 295.491 30.84C300.27 30.7547 304.835 31.6933 309.187 33.656C312.088 34.936 314.691 36.6853 316.995 38.904C319.299 41.0373 321.048 43.64 322.243 46.712C322.584 47.48 322.84 48.4187 323.011 49.528C323.267 50.6373 323.438 51.832 323.523 53.112C323.608 54.3067 323.608 55.5013 323.523 56.696C323.438 57.8907 323.224 58.9573 322.883 59.896C322.371 61.432 321.731 62.6267 320.963 63.48C320.195 64.3333 319.214 64.9733 318.019 65.4C316.824 65.8267 315.374 66.1253 313.667 66.296C312.046 66.3813 310.083 66.4667 307.779 66.552C305.731 66.6373 303.811 66.68 302.019 66.68C300.227 66.68 298.392 66.68 296.515 66.68C294.638 66.5947 292.675 66.552 290.627 66.552C288.664 66.4667 286.446 66.3813 283.971 66.296C283.715 68.0027 283.928 69.496 284.611 70.776C285.379 71.9707 286.403 72.9947 287.683 73.848C288.963 74.616 290.414 75.2133 292.035 75.64C293.656 76.0667 295.235 76.3227 296.771 76.408C299.672 76.5787 302.446 76.3653 305.091 75.768C307.736 75.0853 310.467 74.3173 313.283 73.464ZM307.779 48.632C306.158 46.7547 304.451 45.3893 302.659 44.536C301.294 43.9387 299.843 43.6827 298.307 43.768C296.856 43.768 295.448 43.9813 294.083 44.408C291.608 45.0053 289.518 46.2853 287.811 48.248C287.64 48.4187 287.342 48.8453 286.915 49.528C286.488 50.1253 286.062 50.7653 285.635 51.448C285.294 52.1307 285.038 52.7707 284.867 53.368C284.696 53.9653 284.782 54.264 285.123 54.264H310.211C310.126 53.0693 309.912 52.088 309.571 51.32C309.23 50.4667 308.632 49.5707 307.779 48.632Z" fill="#208F74"/>
</svg>
